<svg version="1.1" viewBox="0.0 0.0 100.0 32.0" fill="none" stroke="none" stroke-linecap="square" stroke-miterlimit="10" xmlns:xlink="http://www.w3.org/1999/xlink" xmlns="http://www.w3.org/2000/svg"><clipPath id="p.0"><path d="m0 0l100.0 0l0 32.0l-100.0 0l0 -32.0z" clip-rule="nonzero"/></clipPath><g clip-path="url(#p.0)"><path fill="#000000" fill-opacity="0.0" d="m0 0l100.0 0l0 32.0l-100.0 0z" fill-rule="evenodd"/><path fill="#b45f06" d="m41.086613 16.0l8.913387 -13.984252l8.913387 13.984252l-8.913387 13.984251z" fill-rule="evenodd"/><path stroke="#b45f06" stroke-width="1.0" stroke-linejoin="round" stroke-linecap="butt" d="m41.086613 16.0l8.913387 -13.984252l8.913387 13.984252l-8.913387 13.984251z" fill-rule="evenodd"/><path fill="#b45f06" d="m20.989502 16.0l8.913385 -13.984252l8.913385 13.984252l-8.913385 13.984251z" fill-rule="evenodd"/><path stroke="#b45f06" stroke-width="1.0" stroke-linejoin="round" stroke-linecap="butt" d="m20.989502 16.0l8.913385 -13.984252l8.913385 13.984252l-8.913385 13.984251z" fill-rule="evenodd"/><path fill="#b45f06" d="m0.8950131 16.0l8.913386 -13.984252l8.913385 13.984252l-8.913385 13.984251z" fill-rule="evenodd"/><path stroke="#b45f06" stroke-width="1.0" stroke-linejoin="round" stroke-linecap="butt" d="m0.8950131 16.0l8.913386 -13.984252l8.913385 13.984252l-8.913385 13.984251z" fill-rule="evenodd"/><path fill="#b45f06" d="m61.183727 16.0l8.913387 -13.984252l8.9133835 13.984252l-8.9133835 13.984251z" fill-rule="evenodd"/><path stroke="#b45f06" stroke-width="1.0" stroke-linejoin="round" stroke-linecap="butt" d="m61.183727 16.0l8.913387 -13.984252l8.9133835 13.984252l-8.9133835 13.984251z" fill-rule="evenodd"/><path fill="#b45f06" d="m81.28084 16.0l8.913391 -13.984252l8.9133835 13.984252l-8.9133835 13.984251z" fill-rule="evenodd"/><path stroke="#b45f06" stroke-width="1.0" stroke-linejoin="round" stroke-linecap="butt" d="m81.28084 16.0l8.913391 -13.984252l8.9133835 13.984252l-8.9133835 13.984251z" fill-rule="evenodd"/></g></svg>